<svg width="44" height="44" viewBox="0 0 44 44" fill="none" xmlns="http://www.w3.org/2000/svg">
<path d="M42.7969 19.5734L24.1781 0.951562C23.5422 0.317187 22.7078 0 21.875 0C21.0422 0 20.2078 0.317187 19.5734 0.953125L0.951562 19.5719C0.317187 20.2078 0 21.0422 0 21.875C0 22.7078 0.317187 23.5422 0.953125 24.1766L19.5734 42.7984C20.2078 43.4328 21.0422 43.75 21.875 43.75C22.7078 43.75 23.5422 43.4328 24.1766 42.7969L42.7984 24.1766C43.4328 23.5422 43.75 22.7078 43.75 21.875C43.75 21.0422 43.4328 20.2078 42.7969 19.5734Z" fill="#C6B37B"/>
</svg>
