<svg width="59" height="59" viewBox="0 0 59 59" fill="none" xmlns="http://www.w3.org/2000/svg">
<path d="M29.1667 0C45.2754 0 58.3333 13.0579 58.3333 29.1667C58.3333 45.2754 45.2754 58.3333 29.1667 58.3333C13.0579 58.3333 0 45.2754 0 29.1667C0 13.0579 13.0579 0 29.1667 0ZM29.1667 5.83333C22.9783 5.83333 17.0434 8.29166 12.6675 12.6675C8.29166 17.0434 5.83333 22.9783 5.83333 29.1667C5.83333 35.355 8.29166 41.29 12.6675 45.6658C17.0434 50.0417 22.9783 52.5 29.1667 52.5C35.355 52.5 41.29 50.0417 45.6658 45.6658C50.0417 41.29 52.5 35.355 52.5 29.1667C52.5 22.9783 50.0417 17.0434 45.6658 12.6675C41.29 8.29166 35.355 5.83333 29.1667 5.83333ZM29.1667 11.6667C29.8811 11.6668 30.5706 11.929 31.1044 12.4038C31.6383 12.8785 31.9793 13.5326 32.0629 14.2421L32.0833 14.5833V27.9592L39.9787 35.8546C40.5018 36.3795 40.8055 37.0838 40.8282 37.8245C40.8508 38.5651 40.5906 39.2867 40.1005 39.8425C39.6104 40.3983 38.9271 40.7467 38.1894 40.817C37.4518 40.8873 36.715 40.6741 36.1287 40.2208L35.8546 39.9787L27.1046 31.2287C26.6513 30.7751 26.3601 30.1846 26.2762 29.5487L26.25 29.1667V14.5833C26.25 13.8098 26.5573 13.0679 27.1043 12.5209C27.6513 11.974 28.3931 11.6667 29.1667 11.6667Z" fill="white"/>
</svg>
